<svg width="42" height="13" viewBox="0 0 42 13" fill="none" xmlns="http://www.w3.org/2000/svg">
<g clip-path="url(#clip0_768_2799)">
<mask id="mask0_768_2799" style="mask-type:luminance" maskUnits="userSpaceOnUse" x="0" y="0" width="42" height="13">
<path d="M42 0H0V12.9924H42V0Z" fill="white"/>
</mask>
<g mask="url(#mask0_768_2799)">
<path d="M26.0501 10.1501C23.6123 11.9917 20.0789 12.9742 17.0367 12.9742C12.7711 12.9742 8.93088 11.3573 6.02565 8.66781C5.79738 8.45634 6.00191 8.16812 6.27581 8.33281C9.41111 10.2025 13.2879 11.3273 17.2924 11.3273C19.9931 11.3273 22.9641 10.7546 25.6958 9.56618C26.1085 9.38651 26.4536 9.84314 26.0501 10.1501Z" fill="#FF9900"/>
<path d="M27.0637 8.96155C26.7532 8.55358 25.0039 8.76879 24.2187 8.86427C23.9795 8.89423 23.9429 8.6808 24.1584 8.52738C25.5517 7.52236 27.8379 7.81245 28.1045 8.14933C28.3711 8.48808 28.0352 10.8368 26.7259 11.9579C26.525 12.1301 26.3332 12.0384 26.4227 11.8101C26.7167 11.0577 27.3759 9.37144 27.0637 8.96155Z" fill="#FF9900"/>
<path d="M24.2736 1.43249V0.455539C24.2736 0.307687 24.3832 0.208496 24.5147 0.208496H28.7821C28.9191 0.208496 29.0287 0.309559 29.0287 0.455539V1.29212C29.0268 1.43249 28.9118 1.6159 28.7073 1.90598L26.4959 5.14188C27.3177 5.12129 28.1851 5.24669 28.9301 5.67714C29.0981 5.77446 29.1437 5.9167 29.1565 6.05706V7.09951C29.1565 7.24175 29.0031 7.40832 28.8424 7.32223C27.5294 6.61665 25.7856 6.53992 24.3339 7.32972C24.186 7.41206 24.0308 7.24736 24.0308 7.10513V6.11508C24.0308 5.956 24.0326 5.68462 24.1878 5.4432L26.7498 1.67765H24.5201C24.3832 1.67765 24.2736 1.57847 24.2736 1.43249Z" fill="#221F1F"/>
<path d="M8.70652 7.528H7.40818C7.28401 7.51864 7.1854 7.42319 7.17627 7.30154V0.47229C7.17627 0.335667 7.28765 0.227116 7.42644 0.227116H8.63714C8.76314 0.232728 8.86352 0.331923 8.87267 0.455445V1.34817H8.89645C9.21229 0.485389 9.80575 0.0830078 10.6056 0.0830078C11.4182 0.0830078 11.9258 0.485389 12.2911 1.34817C12.6051 0.485389 13.3191 0.0830078 14.0842 0.0830078C14.6284 0.0830078 15.2237 0.313207 15.587 0.829753C15.9979 1.40431 15.9139 2.23902 15.9139 2.9708L15.9121 7.28096C15.9121 7.41758 15.8007 7.528 15.6619 7.528H14.3654C14.2357 7.51864 14.1317 7.41197 14.1317 7.28096V3.6614C14.1317 3.37318 14.1573 2.65451 14.0952 2.38126C13.9984 1.92274 13.7081 1.7936 13.3319 1.7936C13.0178 1.7936 12.6891 2.00882 12.5558 2.35319C12.4225 2.69755 12.4353 3.27399 12.4353 3.6614V7.28096C12.4353 7.41758 12.3239 7.528 12.1851 7.528H10.8886C10.7571 7.51864 10.6549 7.41197 10.6549 7.28096L10.6531 3.6614C10.6531 2.89968 10.7754 1.77863 9.85329 1.77863C8.92013 1.77863 8.95667 2.87161 8.95667 3.6614V7.28096C8.95667 7.41758 8.84529 7.528 8.70652 7.528Z" fill="#221F1F"/>
<path d="M32.7025 0.0830078C34.6289 0.0830078 35.6716 1.77863 35.6716 3.93464C35.6716 6.01767 34.5194 7.67023 32.7025 7.67023C30.8107 7.67023 29.7808 5.97462 29.7808 3.86165C29.7808 1.73558 30.8235 0.0830078 32.7025 0.0830078ZM32.7135 1.47731C31.7565 1.47731 31.6963 2.81359 31.6963 3.64642C31.6963 4.48113 31.6835 6.26283 32.7025 6.26283C33.7086 6.26283 33.7561 4.8255 33.7561 3.94961C33.7561 3.37317 33.7324 2.68445 33.5625 2.13796C33.4164 1.66259 33.1261 1.47731 32.7135 1.47731Z" fill="#221F1F"/>
<path d="M38.1695 7.528H36.8767C36.747 7.51864 36.643 7.41197 36.643 7.28096L36.6411 0.44983C36.652 0.324436 36.7598 0.227116 36.8913 0.227116H38.0947C38.2079 0.232728 38.301 0.311337 38.3266 0.418014V1.46233H38.3503C38.7136 0.528435 39.2232 0.0830078 40.1197 0.0830078C40.7023 0.0830078 41.2702 0.298235 41.6353 0.887773C41.975 1.43426 41.975 2.35319 41.975 3.01384V7.31278C41.9604 7.43255 41.8526 7.528 41.7249 7.528H40.4229C40.3042 7.51864 40.2056 7.42881 40.1928 7.31278V3.60338C40.1928 2.85664 40.2768 1.76365 39.3802 1.76365C39.0643 1.76365 38.774 1.98075 38.6296 2.31015C38.4471 2.7275 38.4233 3.14298 38.4233 3.60338V7.28096C38.4215 7.41758 38.3083 7.528 38.1695 7.528Z" fill="#221F1F"/>
<path d="M20.8714 4.26585V3.97764C19.9329 3.97764 18.9413 4.18351 18.9413 5.31767C18.9413 5.89222 19.2317 6.28151 19.7302 6.28151C20.0954 6.28151 20.4223 6.05131 20.6286 5.677C20.8842 5.2166 20.8714 4.78427 20.8714 4.26585ZM22.1807 7.50923C22.0949 7.58784 21.9707 7.59346 21.874 7.54105C21.443 7.17423 21.3663 7.00392 21.1289 6.65395C20.4167 7.39882 19.9127 7.62153 18.9888 7.62153C17.8968 7.62153 17.0459 6.93093 17.0459 5.54786C17.0459 4.46798 17.6174 3.73247 18.4301 3.37313C19.1349 3.05497 20.1191 2.99882 20.8714 2.91086V2.73868C20.8714 2.42239 20.8952 2.04808 20.7144 1.77484C20.5555 1.52966 20.2524 1.4286 19.9858 1.4286C19.491 1.4286 19.049 1.68875 18.9413 2.22775C18.9194 2.34753 18.8336 2.46543 18.7167 2.47104L17.4567 2.33256C17.3508 2.30823 17.234 2.22026 17.2632 2.05369C17.5535 0.489085 18.9322 0.0174561 20.1666 0.0174561C20.7984 0.0174561 21.6238 0.189638 22.1223 0.679981C22.7541 1.28449 22.6938 2.09113 22.6938 2.96888V5.04255C22.6938 5.66577 22.9458 5.93901 23.1832 6.2759C23.2672 6.39567 23.2855 6.53978 23.1796 6.62962C22.9148 6.85607 22.4437 7.27717 22.1843 7.51298L22.1807 7.50923Z" fill="#221F1F"/>
<path d="M3.85096 4.26585V3.97764C2.91237 3.97764 1.92083 4.18351 1.92083 5.31767C1.92083 5.89222 2.21117 6.28151 2.70968 6.28151C3.07489 6.28151 3.40176 6.05131 3.60809 5.677C3.86374 5.2166 3.85096 4.78427 3.85096 4.26585ZM5.16024 7.50923C5.07442 7.58784 4.95025 7.59346 4.85346 7.54105C4.42252 7.17423 4.34582 7.00392 4.10843 6.65395C3.39627 7.39882 2.89229 7.62153 1.96831 7.62153C0.876331 7.62153 0.0253906 6.93093 0.0253906 5.54786C0.0253906 4.46798 0.596944 3.73247 1.40954 3.37313C2.11439 3.05497 3.09863 2.99882 3.85096 2.91086V2.73868C3.85096 2.42239 3.8747 2.04808 3.69393 1.77484C3.53506 1.52966 3.23193 1.4286 2.96533 1.4286C2.47047 1.4286 2.02857 1.68875 1.92083 2.22775C1.89891 2.34753 1.81309 2.46543 1.69622 2.47104L0.436252 2.33256C0.33034 2.30823 0.213474 2.22026 0.24269 2.05369C0.533032 0.489085 1.9117 0.0174561 3.14611 0.0174561C3.77792 0.0174561 4.60329 0.189638 5.10181 0.679981C5.73362 1.28449 5.67336 2.09113 5.67336 2.96888V5.04255C5.67336 5.66577 5.92535 5.93901 6.16274 6.2759C6.24674 6.39567 6.265 6.53978 6.15909 6.62962C5.89431 6.85607 5.42319 7.27717 5.16389 7.51298L5.16024 7.50923Z" fill="#221F1F"/>
</g>
</g>
<defs>
<clipPath id="clip0_768_2799">
<rect width="42" height="13" fill="white"/>
</clipPath>
</defs>
</svg>
