<svg width="48" height="11" viewBox="0 0 48 11" fill="none" xmlns="http://www.w3.org/2000/svg">
<g clip-path="url(#clip0_768_2624)">
<path d="M44.6592 8.7636C44.6592 8.05069 45.208 7.47229 45.884 7.47229C46.5602 7.47229 47.1086 8.05069 47.1086 8.7636C47.1086 9.47651 46.5602 10.0545 45.884 10.0545C45.208 10.0545 44.6592 9.47651 44.6592 8.7636Z" fill="#86BC24"/>
<path d="M5.59296 5.3438C5.59296 4.5259 5.44306 3.9191 5.1432 3.52378C4.84297 3.12884 4.38818 2.93156 3.77679 2.93156H3.12639V7.93315H3.624C4.30312 7.93315 4.80078 7.72092 5.11766 7.29498C5.43415 6.86976 5.59296 6.21924 5.59296 5.3438ZM7.91243 5.25861C7.91243 6.7487 7.53246 7.8969 6.77253 8.70285C6.01261 9.50917 4.94434 9.91234 3.5673 9.91234H0.891602V0.983398H3.75408C5.08183 0.983398 6.10688 1.34994 6.82924 2.08265C7.55124 2.81573 7.91243 3.87389 7.91243 5.25861Z" fill="#0F0B0B"/>
<path d="M15.3242 9.91222H17.4534V0.945923H15.3242V9.91222Z" fill="#0F0B0B"/>
<path d="M20.4443 6.56781C20.4443 7.13948 20.5152 7.57552 20.6566 7.87518C20.7984 8.17522 21.0359 8.32504 21.3698 8.32504C21.7002 8.32504 21.9337 8.17522 22.0698 7.87518C22.2059 7.57552 22.2735 7.13948 22.2735 6.56781C22.2735 5.99913 22.2048 5.57017 22.0669 5.28061C21.9287 4.99028 21.6931 4.84492 21.3588 4.84492C21.032 4.84492 20.7984 4.98955 20.6566 5.27724C20.5152 5.56533 20.4443 5.99539 20.4443 6.56781ZM24.4406 6.56781C24.4406 7.65698 24.1699 8.50665 23.6269 9.11567C23.0843 9.72509 22.3246 10.03 21.3481 10.03C20.4117 10.03 19.6663 9.71836 19.113 9.09512C18.559 8.47189 18.2822 7.6297 18.2822 6.56781C18.2822 5.482 18.5534 4.6383 19.0964 4.03675C19.6394 3.43518 20.4007 3.1344 21.3811 3.1344C21.9869 3.1344 22.5229 3.27377 22.987 3.55214C23.4518 3.8305 23.8105 4.22919 24.0624 4.74854C24.3149 5.26717 24.4406 5.87395 24.4406 6.56781Z" fill="#0F0B0B"/>
<path d="M25.2861 9.91227H27.4157V6.48073V3.25208H25.2861V9.91227Z" fill="#0F0B0B"/>
<path d="M25.2861 2.44647H27.4157V0.945557H25.2861V2.44647Z" fill="#0F0B0B"/>
<path d="M31.7298 8.21359C32.0174 8.21359 32.3597 8.13661 32.7591 7.9838V9.65958C32.4719 9.79259 32.1992 9.88787 31.9398 9.94428C31.6802 10.0015 31.3757 10.0299 31.0274 10.0299C30.3124 10.0299 29.7971 9.84042 29.4805 9.46231C29.1654 9.08417 29.0074 8.50352 29.0074 7.71999V4.97448H28.2617V3.25272H29.0074V1.5519L31.1532 1.15845V3.25272H32.5118V4.97448H31.1532V7.56681C31.1532 7.99799 31.3456 8.21359 31.7298 8.21359Z" fill="#0F0B0B"/>
<path d="M36.6585 8.21359C36.9458 8.21359 37.2883 8.13661 37.6878 7.9838V9.65958C37.401 9.79259 37.1276 9.88787 36.8682 9.94428C36.6084 10.0015 36.3049 10.0299 35.956 10.0299C35.241 10.0299 34.7257 9.84042 34.4098 9.46231C34.094 9.08417 33.936 8.50352 33.936 7.71999V4.97448H33.1899V3.25272H33.936V1.52612L36.0814 1.15845V3.25272H37.4407V4.97448H36.0814V7.56681C36.0814 7.99799 36.2738 8.21359 36.6585 8.21359Z" fill="#0F0B0B"/>
<path d="M40.3745 5.75637C40.4035 5.3917 40.5025 5.12455 40.6711 4.95379C40.8406 4.78342 41.0497 4.69824 41.2999 4.69824C41.5729 4.69824 41.7897 4.79387 41.9506 4.98668C42.1126 5.17834 42.1971 5.43504 42.2038 5.75637H40.3745ZM43.3773 3.91957C42.8712 3.39645 42.153 3.13452 41.2241 3.13452C40.2477 3.13452 39.4961 3.43531 38.9694 4.03687C38.4431 4.63844 38.1797 5.50157 38.1797 6.62623C38.1797 7.71541 38.4643 8.55534 39.0322 9.14494C39.6003 9.73454 40.3981 10.0297 41.4257 10.0297C41.9191 10.0297 42.3438 9.99425 42.6996 9.92363C43.0534 9.85376 43.3958 9.72746 43.7279 9.54512L43.4006 8.0442C43.1594 8.14806 42.9296 8.22803 42.7128 8.28072C42.3993 8.3573 42.0556 8.3958 41.6814 8.3958C41.2709 8.3958 40.947 8.29005 40.7095 8.07856C40.472 7.8667 40.3453 7.57454 40.3309 7.20239H44.1369V6.17972C44.1369 5.19592 43.8838 4.44229 43.3773 3.91957Z" fill="#0F0B0B"/>
<path d="M10.7382 5.75637C10.7672 5.3917 10.8661 5.12455 11.0348 4.95379C11.2039 4.78342 11.4134 4.69824 11.664 4.69824C11.9362 4.69824 12.1531 4.79387 12.3144 4.98668C12.4764 5.17834 12.5604 5.43504 12.5679 5.75637H10.7382ZM13.7414 3.91957C13.2349 3.39645 12.5171 3.13452 11.5878 3.13452C10.6109 3.13452 9.85985 3.43531 9.33347 4.03687C8.80714 4.63844 8.54346 5.50157 8.54346 6.62623C8.54346 7.71541 8.82774 8.55534 9.39627 9.14494C9.96409 9.73454 10.7619 10.0297 11.7895 10.0297C12.2828 10.0297 12.7075 9.99425 13.0633 9.92363C13.417 9.85376 13.7595 9.72746 14.092 9.54512L13.7644 8.0442C13.5231 8.14806 13.2934 8.22803 13.0768 8.28072C12.7628 8.3573 12.4193 8.3958 12.045 8.3958C11.6349 8.3958 11.3106 8.29005 11.0732 8.07856C10.8353 7.8667 10.7092 7.57454 10.6946 7.20239H14.5006V6.17972C14.5006 5.19592 14.2475 4.44229 13.7414 3.91957Z" fill="#0F0B0B"/>
</g>
<defs>
<clipPath id="clip0_768_2624">
<rect width="48" height="11" fill="white"/>
</clipPath>
</defs>
</svg>
