<svg width="50" height="15" viewBox="0 0 50 15" fill="none" xmlns="http://www.w3.org/2000/svg">
<path d="M49.9567 6.82304V5.92251H48.8656V4.52251L48.829 4.53411L47.8043 4.85548L47.7839 4.86179V5.92254H46.1665V5.33161C46.1665 5.05645 46.2265 4.84589 46.3448 4.70545C46.4622 4.5667 46.6305 4.49617 46.8445 4.49617C46.9988 4.49617 47.1582 4.53339 47.3189 4.60673L47.3592 4.62517V3.67679L47.3403 3.66964C47.1903 3.61448 46.9866 3.58667 46.7342 3.58667C46.4159 3.58667 46.1268 3.65767 45.8747 3.79833C45.6223 3.9392 45.4238 4.14033 45.2848 4.39601C45.1464 4.65142 45.0759 4.94639 45.0759 5.27283V5.92251H44.3162V6.82304H45.0759V10.6168H46.1665V6.82304H47.7839V9.23389C47.7839 10.2268 48.2409 10.73 49.1421 10.73C49.29 10.73 49.4461 10.7122 49.6049 10.6774C49.7671 10.6416 49.8775 10.6059 49.9424 10.5678L49.9567 10.559V9.65017L49.9122 9.68026C49.8531 9.72067 49.7793 9.7537 49.693 9.7783C49.6061 9.8033 49.5339 9.81583 49.4775 9.81583C49.2665 9.81583 49.1104 9.75751 49.0134 9.64245C48.9153 9.52636 48.8656 9.32333 48.8656 9.03929V6.82304H49.9567ZM41.8808 9.81598C41.4851 9.81598 41.1729 9.68145 40.9531 9.41642C40.7317 9.15008 40.6195 8.77036 40.6195 8.28789C40.6195 7.79014 40.7317 7.40054 40.9531 7.12951C41.1732 6.86023 41.4823 6.72358 41.872 6.72358C42.25 6.72358 42.5512 6.85408 42.7668 7.11173C42.9836 7.37067 43.0933 7.75714 43.0933 8.2607C43.0933 8.77045 42.99 9.16201 42.786 9.42395C42.5836 9.68392 42.279 9.81598 41.8808 9.81598ZM41.9293 5.80942C41.1741 5.80942 40.5744 6.03623 40.1467 6.48358C39.7192 6.93098 39.5025 7.55011 39.5025 8.32392C39.5025 9.05889 39.714 9.65008 40.1314 10.0808C40.5485 10.5116 41.1165 10.7299 41.8189 10.7299C42.5509 10.7299 43.1387 10.4999 43.5662 10.0464C43.9936 9.59333 44.2104 8.98004 44.2104 8.22429C44.2104 7.47783 44.007 6.88223 43.6061 6.45439C43.2049 6.02639 42.6409 5.80942 41.9293 5.80942ZM37.7442 5.80942C37.2305 5.80942 36.8055 5.94411 36.4811 6.20967C36.1543 6.47679 35.9887 6.82714 35.9887 7.25111C35.9887 7.47148 36.0244 7.66723 36.0948 7.83329C36.1656 7.99986 36.2753 8.14654 36.4207 8.26964C36.5653 8.39173 36.7881 8.51961 37.0836 8.64973C37.332 8.75451 37.5174 8.84314 37.6351 8.91298C37.75 8.98142 37.8317 9.05023 37.8778 9.11726C37.9226 9.18283 37.9451 9.27258 37.9451 9.38336C37.9451 9.69873 37.7147 9.85217 37.2406 9.85217C37.0647 9.85217 36.8643 9.81454 36.6445 9.74033C36.4262 9.66726 36.2204 9.56023 36.0339 9.42301L35.9887 9.38973V10.466L36.0052 10.4739C36.1595 10.5469 36.354 10.6085 36.5836 10.6569C36.8122 10.7054 37.0201 10.7301 37.2009 10.7301C37.7582 10.7301 38.2073 10.5948 38.5348 10.3276C38.8643 10.0586 39.0314 9.70001 39.0314 9.26139C39.0314 8.94498 38.9415 8.67364 38.7643 8.45479C38.5881 8.23773 38.2826 8.03845 37.8564 7.86229C37.5168 7.72261 37.2994 7.60667 37.2098 7.51764C37.1232 7.43167 37.0793 7.31004 37.0793 7.15604C37.0793 7.01954 37.1336 6.91017 37.2448 6.82161C37.357 6.73258 37.5131 6.68733 37.7089 6.68733C37.8906 6.68733 38.0765 6.71673 38.2613 6.77439C38.4461 6.83204 38.6086 6.90926 38.7439 7.00373L38.7884 7.03495V6.01404L38.7714 6.00651C38.6464 5.95158 38.4814 5.90458 38.2814 5.86642C38.082 5.82854 37.9015 5.80942 37.7442 5.80942ZM33.1458 9.81598C32.75 9.81598 32.4378 9.68145 32.218 9.41642C31.9967 9.15008 31.8845 8.77045 31.8845 8.28789C31.8845 7.79014 31.9967 7.40054 32.218 7.12951C32.4381 6.86023 32.747 6.72358 33.1369 6.72358C33.515 6.72358 33.8159 6.85408 34.0317 7.11173C34.2485 7.37067 34.3582 7.75714 34.3582 8.2607C34.3582 8.77045 34.2549 9.16201 34.0509 9.42395C33.8485 9.68392 33.5439 9.81598 33.1458 9.81598ZM33.1942 5.80942C32.439 5.80942 31.839 6.03623 31.4116 6.48358C30.9842 6.93098 30.7674 7.55011 30.7674 8.32392C30.7674 9.0592 30.979 9.65008 31.3964 10.0808C31.8134 10.5116 32.3814 10.7299 33.0839 10.7299C33.8159 10.7299 34.4037 10.4999 34.8314 10.0464C35.2586 9.59333 35.4753 8.98004 35.4753 8.22429C35.4753 7.47783 35.272 6.88223 34.8711 6.45439C34.4698 6.02639 33.9055 5.80942 33.1942 5.80942ZM29.1119 6.73545V5.92251H28.0347V10.6167H29.1119V8.21542C29.1119 7.80714 29.2022 7.47167 29.3805 7.21833C29.5564 6.96798 29.7909 6.84111 30.0772 6.84111C30.1742 6.84111 30.2832 6.85751 30.4011 6.88995C30.518 6.9222 30.6025 6.95723 30.6525 6.99408L30.6976 7.0277V5.91448L30.6802 5.90679C30.5799 5.86311 30.4379 5.84108 30.2583 5.84108C29.9876 5.84108 29.7453 5.93023 29.5378 6.10579C29.3557 6.26008 29.224 6.47164 29.1234 6.73545H29.1119ZM26.1054 5.80942C25.6112 5.80942 25.1704 5.91804 24.7954 6.13217C24.4197 6.34683 24.1291 6.65323 23.9314 7.04286C23.7346 7.43154 23.6346 7.88558 23.6346 8.39192C23.6346 8.83545 23.7315 9.24248 23.923 9.6012C24.1147 9.96051 24.3858 10.2416 24.7292 10.4366C25.072 10.6313 25.4682 10.73 25.9069 10.73C26.4189 10.73 26.856 10.6251 27.2064 10.4182L27.2206 10.4099V9.39826L27.1753 9.43214C27.0166 9.55067 26.8392 9.64529 26.6483 9.71345C26.4579 9.78154 26.2843 9.81598 26.1321 9.81598C25.7093 9.81598 25.37 9.68039 25.1237 9.41311C24.8768 9.14548 24.7517 8.76967 24.7517 8.29676C24.7517 7.82089 24.8822 7.43542 25.1394 7.15101C25.3959 6.86742 25.7359 6.72358 26.1498 6.72358C26.5039 6.72358 26.849 6.84645 27.1754 7.08917L27.2206 7.12283V6.05689L27.206 6.04848C27.0832 5.97798 26.9156 5.91979 26.7076 5.87564C26.5005 5.83161 26.2979 5.80942 26.1054 5.80942ZM22.8927 5.92254H21.8154V10.6167H22.8927V5.92254ZM22.3651 3.92283C22.1878 3.92283 22.0331 3.9847 21.9061 4.1073C21.7785 4.23023 21.7138 4.38501 21.7138 4.5677C21.7138 4.74751 21.7777 4.89948 21.9041 5.01917C22.0296 5.13848 22.1848 5.19895 22.3651 5.19895C22.5454 5.19895 22.7011 5.13848 22.8282 5.01936C22.9561 4.89948 23.0209 4.74754 23.0209 4.5677C23.0209 4.39142 22.9578 4.2382 22.8334 4.11223C22.7092 3.98651 22.5515 3.92283 22.3651 3.92283ZM19.6772 5.5762V10.6167H20.7766V4.06651H19.255L17.3209 8.93179L15.4439 4.06651H13.8604V10.6166H14.8935V5.57573H14.929L16.911 10.6167H17.6907L19.6417 5.5762H19.6772Z" fill="#706D6E"/>
<path d="M5.06784 7.07234H0V1.87781H5.06784V7.07234Z" fill="#F1511B"/>
<path d="M10.6634 7.07234H5.5957V1.87781H10.6634V7.07234Z" fill="#80CC28"/>
<path d="M5.06768 12.8097H0V7.61523H5.06768V12.8097Z" fill="#00ADEF"/>
<path d="M10.6634 12.8097H5.5957V7.61523H10.6634V12.8097Z" fill="#FBBC09"/>
</svg>
